<?xml version="1.0" encoding="utf-8"?>
<!-- Generator: Adobe Illustrator 26.3.0, SVG Export Plug-In . SVG Version: 6.00 Build 0)  -->
<svg version="1.1" id="Layer_1" xmlns="http://www.w3.org/2000/svg" xmlns:xlink="http://www.w3.org/1999/xlink" x="0px" y="0px"
	 viewBox="0 0 16 16" style="enable-background:new 0 0 16 16;" xml:space="preserve">
<style type="text/css">
	.st0{fill:#F9F5F2;}
	.st1{fill:#274543;stroke:#274543;stroke-width:0.25;stroke-miterlimit:10;}
</style>
<circle class="st0" cx="8" cy="8" r="8"/>
<path class="st1" d="M13.4,7.7c0.5-0.3,0.9-0.9,0.7-1.9C14,4.6,13.1,4,11.7,4h-3c0,0,0,0,0,0h0c-0.1,0-0.2,0-0.3,0.1
	c0,0-0.1,0.1-0.1,0.1l-3,5.1l-3-5.1C2.2,4.1,1.9,4,1.7,4C1.5,4.1,1.4,4.3,1.4,4.5v6.9c0,0.3,0.2,0.5,0.5,0.5c0.3,0,0.5-0.2,0.5-0.5
	V6.4l2.5,4.2c0.1,0.1,0.3,0.2,0.4,0.2c0.2,0,0.3-0.1,0.4-0.2l2.5-4.2L9,5h2.7c0.9,0,1.3,0.3,1.4,0.9c0.1,0.8-0.3,1.3-1.1,1.4l-0.8,0
	c-0.3,0-0.5,0.2-0.5,0.5c0,0.3,0.2,0.5,0.5,0.5h0l0.8,0h0c1,0,1.5,0.5,1.4,1.5C13.5,10.6,13,11,12.2,11h-3V9.4
	c0-0.3-0.2-0.5-0.5-0.5c-0.3,0-0.5,0.2-0.5,0.5v2.1c0,0.3,0.2,0.5,0.5,0.5l0,0h3.5c1.3,0,2.3-0.8,2.4-2C14.7,8.8,14.1,8,13.4,7.7z"
	/>
</svg>
