<?xml version="1.0" encoding="utf-8"?>
<!-- Generator: Adobe Illustrator 26.3.0, SVG Export Plug-In . SVG Version: 6.00 Build 0)  -->
<svg version="1.1" id="Layer_1" xmlns="http://www.w3.org/2000/svg" xmlns:xlink="http://www.w3.org/1999/xlink" x="0px" y="0px"
	 viewBox="0 0 1034.7 900.8" style="enable-background:new 0 0 1034.7 900.8;" xml:space="preserve">
<style type="text/css">
	.st0{enable-background:new    ;}
</style>
<path d="M939,289.5c37.2-26.9,68.8-72.8,58.5-147.1C984.1,46.7,912.1,0,808.5,0H574.4c-0.6,0-1.2,0-1.8,0h-1.2
	c-8.1,0.8-15.8,3.8-22.2,8.9c-2.6,2.1-5.1,4.5-7.2,7L307.8,411.3L72.9,16.2C62.6,2.5,44.8-3.2,28.5,2C12,7.3,0.9,22.6,0.9,39.8
	v542.5c0.4,21.7,17.9,39.1,39.6,39.4c21.8,0,39.4-17.6,39.5-39.4V184.1l195.3,325.5c7.8,10.1,19.8,15.9,32.6,15.8
	c12.5,0.3,24.3-5.6,31.6-15.8l194.6-325.5l64-105h210.5c67.2,0,104.4,21.4,110.7,72.8c7.1,64.1-23.7,103.6-82.3,110l-60.1,0.8
	c-21.8,0.1-39.5,17.7-39.6,39.6c0.8,21.4,18.2,39.5,39.6,39.5h0.8l61.7-0.8h2.4c77.5,0,120.2,38,112.3,115.4
	c-5.5,58.5-43.5,85.4-107.6,85.4H613.9V418.4c0-22.1-17.9-39.9-39.9-39.9c-22.1,0-39.9,17.9-39.9,39.9v163.4
	c0,22.1,17.9,39.9,39.9,39.9l0,0h272.5c105.2,0,178.8-60.1,186.7-158.2C1040.3,374.1,991.2,307.8,939,289.5z"/>
<g class="st0">
	<path d="M89.9,708.2v82.5H73.4V737l-22.1,53.7H38.8L16.5,737v53.7H0v-82.5h18.8L45,769.5l26.2-61.3H89.9z"/>
	<path d="M106,740.1c2.6-5.1,6.2-9.1,10.8-11.8c4.5-2.8,9.6-4.1,15.2-4.1c4.9,0,9.2,1,12.8,3c3.7,2,6.6,4.5,8.8,7.4v-9.3h16.7v65.5
		h-16.7v-9.6c-2.1,3.1-5.1,5.6-8.8,7.6c-3.7,2-8.1,3-12.9,3c-5.5,0-10.5-1.4-15.1-4.3c-4.5-2.8-8.1-6.8-10.8-12
		c-2.6-5.2-4-11.1-4-17.8C102,751.1,103.3,745.2,106,740.1z M151.2,747.6c-1.6-2.9-3.7-5.1-6.4-6.6c-2.7-1.5-5.6-2.3-8.6-2.3
		s-5.9,0.8-8.5,2.2c-2.6,1.5-4.7,3.7-6.3,6.6c-1.6,2.9-2.4,6.3-2.4,10.2c0,3.9,0.8,7.4,2.4,10.3c1.6,3,3.7,5.2,6.4,6.8
		c2.6,1.6,5.5,2.4,8.5,2.4c3.1,0,5.9-0.8,8.6-2.3c2.7-1.5,4.8-3.7,6.4-6.6c1.6-2.9,2.4-6.3,2.4-10.3
		C153.5,753.9,152.7,750.5,151.2,747.6z"/>
	<path d="M211.3,727.2c3.4-2,7.3-3,11.8-3v17.4h-4.4c-5.2,0-9.1,1.2-11.8,3.7c-2.6,2.4-4,6.7-4,12.8v32.6h-16.5v-65.5h16.5v10.2
		C205,731.9,207.8,729.2,211.3,727.2z"/>
	<path d="M235.2,714.6c-1.9-1.9-2.9-4.2-2.9-6.9c0-2.8,1-5.1,2.9-6.9c1.9-1.8,4.4-2.8,7.3-2.8c2.9,0,5.3,0.9,7.3,2.8
		c1.9,1.9,2.9,4.2,2.9,6.9c0,2.8-1,5.1-2.9,6.9c-1.9,1.9-4.4,2.8-7.3,2.8C239.6,717.4,237.2,716.5,235.2,714.6z M250.7,725.2v65.5
		h-16.5v-65.5H250.7z"/>
	<path d="M266.7,740.1c2.6-5.1,6.2-9.1,10.8-11.8c4.5-2.8,9.6-4.1,15.2-4.1c4.9,0,9.2,1,12.8,3c3.7,2,6.6,4.5,8.8,7.4v-9.3h16.7
		v65.5h-16.7v-9.6c-2.1,3.1-5.1,5.6-8.8,7.6c-3.7,2-8.1,3-12.9,3c-5.5,0-10.5-1.4-15.1-4.3c-4.5-2.8-8.1-6.8-10.8-12
		c-2.6-5.2-4-11.1-4-17.8C262.7,751.1,264,745.2,266.7,740.1z M311.9,747.6c-1.6-2.9-3.7-5.1-6.4-6.6c-2.7-1.5-5.6-2.3-8.6-2.3
		c-3.1,0-5.9,0.8-8.5,2.2c-2.6,1.5-4.7,3.7-6.3,6.6c-1.6,2.9-2.4,6.3-2.4,10.2c0,3.9,0.8,7.4,2.4,10.3c1.6,3,3.7,5.2,6.4,6.8
		c2.6,1.6,5.5,2.4,8.5,2.4c3.1,0,5.9-0.8,8.6-2.3c2.7-1.5,4.8-3.7,6.4-6.6c1.6-2.9,2.4-6.3,2.4-10.3
		C314.2,753.9,313.5,750.5,311.9,747.6z"/>
	<path d="M402.3,731.6c4.8,4.9,7.2,11.8,7.2,20.6v38.4H393v-36.2c0-5.2-1.3-9.2-3.9-12c-2.6-2.8-6.1-4.2-10.6-4.2
		c-4.6,0-8.2,1.4-10.8,4.2c-2.6,2.8-4,6.8-4,12v36.2h-16.5v-65.5h16.5v8.2c2.2-2.8,5-5.1,8.5-6.7c3.4-1.6,7.2-2.4,11.3-2.4
		C391.2,724.2,397.5,726.7,402.3,731.6z"/>
	<path d="M424.9,740.1c2.6-5.1,6.2-9.1,10.8-11.8c4.5-2.8,9.6-4.1,15.2-4.1c4.9,0,9.2,1,12.8,3c3.7,2,6.6,4.5,8.8,7.4v-9.3h16.7
		v65.5h-16.7v-9.6c-2.1,3.1-5.1,5.6-8.8,7.6c-3.7,2-8.1,3-12.9,3c-5.5,0-10.5-1.4-15.1-4.3c-4.5-2.8-8.1-6.8-10.8-12
		c-2.6-5.2-4-11.1-4-17.8C421,751.1,422.3,745.2,424.9,740.1z M470.1,747.6c-1.6-2.9-3.7-5.1-6.4-6.6c-2.7-1.5-5.6-2.3-8.6-2.3
		c-3.1,0-5.9,0.8-8.5,2.2c-2.6,1.5-4.7,3.7-6.3,6.6c-1.6,2.9-2.4,6.3-2.4,10.2c0,3.9,0.8,7.4,2.4,10.3c1.6,3,3.7,5.2,6.4,6.8
		c2.6,1.6,5.5,2.4,8.5,2.4c3.1,0,5.9-0.8,8.6-2.3c2.7-1.5,4.8-3.7,6.4-6.6c1.6-2.9,2.4-6.3,2.4-10.3
		C472.5,753.9,471.7,750.5,470.1,747.6z"/>
	<path d="M591.7,755.3c3,3.8,4.5,8.1,4.5,13c0,4.4-1.1,8.3-3.2,11.6c-2.2,3.3-5.3,6-9.4,7.9c-4.1,1.9-8.9,2.8-14.5,2.8h-35.6v-82.5
		h34c5.6,0,10.4,0.9,14.5,2.7c4.1,1.8,7.1,4.3,9.2,7.6c2.1,3.2,3.1,6.9,3.1,11c0,4.8-1.3,8.8-3.8,12.1c-2.6,3.2-6,5.5-10.2,6.9
		C584.9,749.2,588.7,751.5,591.7,755.3z M550,742.2h15.1c3.9,0,7-0.9,9.1-2.7c2.1-1.8,3.2-4.3,3.2-7.6c0-3.3-1.1-5.9-3.2-7.7
		c-2.1-1.8-5.2-2.7-9.1-2.7H550V742.2z M576.1,774.4c2.2-1.9,3.4-4.6,3.4-8c0-3.5-1.2-6.3-3.5-8.3c-2.4-2-5.6-3-9.6-3H550v22.2h16.7
		C570.7,777.2,573.8,776.3,576.1,774.4z"/>
	<path d="M621.5,787.5c-5-2.8-9-6.8-11.9-11.9c-2.9-5.1-4.3-11-4.3-17.7c0-6.7,1.5-12.6,4.4-17.7c3-5.1,7-9.1,12.1-11.9
		c5.1-2.8,10.8-4.2,17.1-4.2c6.3,0,12,1.4,17.1,4.2c5.1,2.8,9.2,6.8,12.1,11.9c3,5.1,4.4,11,4.4,17.7c0,6.7-1.5,12.6-4.5,17.7
		c-3,5.1-7.1,9.1-12.3,11.9c-5.2,2.8-10.9,4.2-17.3,4.2C632.2,791.7,626.6,790.3,621.5,787.5z M647,775.1c2.6-1.5,4.7-3.6,6.3-6.6
		c1.6-2.9,2.4-6.5,2.4-10.6c0-6.2-1.6-11-4.9-14.4c-3.3-3.3-7.3-5-12-5c-4.7,0-8.7,1.7-11.9,5c-3.2,3.3-4.8,8.1-4.8,14.4
		c0,6.2,1.6,11,4.7,14.4c3.1,3.4,7,5,11.8,5C641.5,777.3,644.3,776.6,647,775.1z"/>
	<path d="M709.7,727.2c3.4-2,7.3-3,11.8-3v17.4h-4.4c-5.2,0-9.1,1.2-11.8,3.7c-2.6,2.4-4,6.7-4,12.8v32.6h-16.5v-65.5h16.5v10.2
		C703.5,731.9,706.3,729.2,709.7,727.2z"/>
	<path d="M757.5,727.2c3.4-2,7.3-3,11.8-3v17.4h-4.4c-5.2,0-9.1,1.2-11.8,3.7c-2.6,2.4-4,6.7-4,12.8v32.6h-16.5v-65.5h16.5v10.2
		C751.3,731.9,754.1,729.2,757.5,727.2z"/>
	<path d="M780.1,740.1c2.6-5.1,6.2-9.1,10.8-11.8c4.5-2.8,9.6-4.1,15.2-4.1c4.9,0,9.2,1,12.8,3c3.7,2,6.6,4.5,8.8,7.4v-9.3h16.7
		v65.5h-16.7v-9.6c-2.1,3.1-5.1,5.6-8.8,7.6c-3.7,2-8.1,3-12.9,3c-5.5,0-10.5-1.4-15.1-4.3c-4.5-2.8-8.1-6.8-10.8-12
		c-2.6-5.2-4-11.1-4-17.8C776.1,751.1,777.4,745.2,780.1,740.1z M825.3,747.6c-1.6-2.9-3.7-5.1-6.4-6.6c-2.7-1.5-5.6-2.3-8.6-2.3
		c-3.1,0-5.9,0.8-8.5,2.2c-2.6,1.5-4.7,3.7-6.3,6.6c-1.6,2.9-2.4,6.3-2.4,10.2c0,3.9,0.8,7.4,2.4,10.3c1.6,3,3.7,5.2,6.4,6.8
		c2.6,1.6,5.5,2.4,8.5,2.4c3.1,0,5.9-0.8,8.6-2.3c2.7-1.5,4.8-3.7,6.4-6.6c1.6-2.9,2.4-6.3,2.4-10.3
		C827.6,753.9,826.8,750.5,825.3,747.6z"/>
	<path d="M877,703.2v87.5h-16.5v-87.5H877z"/>
	<path d="M943.4,727.5c3.9,2.2,6.9,5.4,9,9.6c2.2,4.2,3.2,9.3,3.2,15.2v38.4h-16.5v-36.2c0-5.2-1.3-9.2-3.9-12
		c-2.6-2.8-6.1-4.2-10.6-4.2c-4.6,0-8.2,1.4-10.8,4.2c-2.6,2.8-4,6.8-4,12v36.2h-16.5v-87.5h16.5v30.1c2.1-2.8,5-5.1,8.5-6.7
		c3.5-1.6,7.5-2.4,11.8-2.4C935.2,724.2,939.6,725.3,943.4,727.5z"/>
	<path d="M983.5,787.5c-5-2.8-9-6.8-11.9-11.9c-2.9-5.1-4.3-11-4.3-17.7c0-6.7,1.5-12.6,4.4-17.7c3-5.1,7-9.1,12.1-11.9
		c5.1-2.8,10.8-4.2,17.1-4.2c6.3,0,12,1.4,17.1,4.2c5.1,2.8,9.2,6.8,12.1,11.9c3,5.1,4.4,11,4.4,17.7c0,6.7-1.5,12.6-4.5,17.7
		c-3,5.1-7.1,9.1-12.3,11.9c-5.2,2.8-10.9,4.2-17.3,4.2C994.2,791.7,988.6,790.3,983.5,787.5z M1009,775.1c2.6-1.5,4.7-3.6,6.3-6.6
		c1.6-2.9,2.4-6.5,2.4-10.6c0-6.2-1.6-11-4.9-14.4c-3.3-3.3-7.3-5-12-5c-4.7,0-8.7,1.7-11.9,5c-3.2,3.3-4.8,8.1-4.8,14.4
		c0,6.2,1.6,11,4.7,14.4c3.1,3.4,7,5,11.8,5C1003.5,777.3,1006.3,776.6,1009,775.1z"/>
</g>
<g class="st0">
	<path d="M329.4,865.8c-3.2,3.1-8,4.6-14.5,4.6h-10.7v23.2H297V838H315c6.3,0,11,1.5,14.3,4.5c3.3,3,4.9,6.9,4.9,11.7
		C334.2,858.9,332.6,862.7,329.4,865.8z M323.9,861.7c1.9-1.8,2.9-4.2,2.9-7.5c0-6.9-3.9-10.3-11.8-10.3h-10.7v20.4H315
		C319,864.4,322,863.5,323.9,861.7z"/>
	<path d="M350.9,892.1c-2.9-1.3-5.2-3.1-6.8-5.4c-1.6-2.3-2.5-5-2.5-8h7.7c0.3,2.6,1.3,4.8,3.2,6.6c1.9,1.8,4.6,2.7,8.2,2.7
		c3.5,0,6.2-0.9,8.2-2.6c2-1.7,3-3.9,3-6.7c0-2.1-0.6-3.9-1.8-5.2c-1.2-1.3-2.6-2.3-4.4-3c-1.8-0.7-4.1-1.4-7.1-2.2
		c-3.7-1-6.6-1.9-8.8-2.9c-2.2-1-4.1-2.5-5.7-4.5c-1.6-2-2.4-4.8-2.4-8.2c0-3,0.8-5.7,2.3-8c1.5-2.3,3.7-4.1,6.5-5.4s6-1.9,9.6-1.9
		c5.2,0,9.5,1.3,12.8,3.9c3.3,2.6,5.2,6.1,5.6,10.4h-8c-0.3-2.1-1.4-4-3.3-5.6c-2-1.6-4.6-2.4-7.8-2.4c-3,0-5.5,0.8-7.4,2.3
		c-1.9,1.6-2.9,3.8-2.9,6.6c0,2,0.6,3.7,1.7,4.9c1.1,1.3,2.5,2.2,4.2,2.9s4,1.4,7.1,2.3c3.7,1,6.6,2,8.8,3c2.2,1,4.1,2.5,5.7,4.5
		c1.6,2,2.4,4.8,2.4,8.3c0,2.7-0.7,5.3-2.2,7.6c-1.4,2.4-3.6,4.3-6.4,5.8c-2.8,1.5-6.1,2.2-10,2.2
		C357.1,894.1,353.8,893.4,350.9,892.1z"/>
	<path d="M397.2,838v55.5h-7.3V838H397.2z"/>
	<path d="M410.5,851.1c2.4-4.3,5.8-7.7,10-10.2c4.2-2.4,8.9-3.7,14.1-3.7c6.1,0,11.3,1.5,15.9,4.4c4.5,2.9,7.8,7.1,9.9,12.4h-8.7
		c-1.5-3.3-3.8-5.9-6.7-7.7c-2.9-1.8-6.4-2.7-10.4-2.7c-3.9,0-7.4,0.9-10.4,2.7c-3.1,1.8-5.5,4.4-7.3,7.7c-1.8,3.3-2.6,7.2-2.6,11.7
		c0,4.4,0.9,8.3,2.6,11.6c1.8,3.3,4.2,5.9,7.3,7.7c3.1,1.8,6.6,2.7,10.4,2.7c4,0,7.5-0.9,10.4-2.7c2.9-1.8,5.1-4.3,6.7-7.7h8.7
		c-2.1,5.3-5.4,9.4-9.9,12.3c-4.5,2.9-9.8,4.3-15.9,4.3c-5.2,0-9.8-1.2-14.1-3.6c-4.2-2.4-7.6-5.8-10-10.1
		c-2.4-4.3-3.7-9.2-3.7-14.6S408.1,855.4,410.5,851.1z"/>
	<path d="M482.1,890.5c-4.2-2.4-7.6-5.8-10.1-10.1c-2.5-4.3-3.7-9.2-3.7-14.6s1.2-10.3,3.7-14.6c2.5-4.3,5.8-7.7,10.1-10.1
		c4.2-2.4,8.9-3.6,14.1-3.6c5.2,0,9.9,1.2,14.2,3.6c4.2,2.4,7.6,5.8,10,10.1c2.4,4.3,3.7,9.2,3.7,14.7c0,5.5-1.2,10.4-3.7,14.7
		c-2.4,4.3-5.8,7.7-10,10.1c-4.2,2.4-9,3.6-14.2,3.6C491.1,894.1,486.4,892.9,482.1,890.5z M506.7,885.1c3.1-1.8,5.5-4.4,7.3-7.7
		c1.8-3.3,2.7-7.2,2.7-11.6c0-4.5-0.9-8.4-2.7-11.7c-1.8-3.3-4.2-5.9-7.3-7.7c-3.1-1.8-6.6-2.7-10.5-2.7c-3.9,0-7.4,0.9-10.5,2.7
		c-3.1,1.8-5.5,4.4-7.3,7.7c-1.8,3.3-2.7,7.2-2.7,11.7c0,4.4,0.9,8.3,2.7,11.6c1.8,3.3,4.2,5.9,7.3,7.7c3.1,1.8,6.6,2.7,10.5,2.7
		C500.1,887.8,503.6,886.9,506.7,885.1z M504.2,826l-17,9.1v-5.4l17-10V826z"/>
	<path d="M540.9,887.6h19.4v5.9h-26.7V838h7.3V887.6z"/>
	<path d="M579.2,890.5c-4.2-2.4-7.6-5.8-10.1-10.1c-2.5-4.3-3.7-9.2-3.7-14.6s1.2-10.3,3.7-14.6c2.5-4.3,5.8-7.7,10.1-10.1
		c4.2-2.4,8.9-3.6,14.1-3.6c5.2,0,9.9,1.2,14.2,3.6c4.2,2.4,7.6,5.8,10,10.1c2.4,4.3,3.7,9.2,3.7,14.7c0,5.5-1.2,10.4-3.7,14.7
		c-2.4,4.3-5.8,7.7-10,10.1c-4.2,2.4-9,3.6-14.2,3.6C588.1,894.1,583.4,892.9,579.2,890.5z M603.7,885.1c3.1-1.8,5.5-4.4,7.3-7.7
		c1.8-3.3,2.7-7.2,2.7-11.6c0-4.5-0.9-8.4-2.7-11.7c-1.8-3.3-4.2-5.9-7.3-7.7c-3.1-1.8-6.6-2.7-10.5-2.7s-7.4,0.9-10.5,2.7
		c-3.1,1.8-5.5,4.4-7.3,7.7c-1.8,3.3-2.7,7.2-2.7,11.7c0,4.4,0.9,8.3,2.7,11.6c1.8,3.3,4.2,5.9,7.3,7.7c3.1,1.8,6.6,2.7,10.5,2.7
		S600.6,886.9,603.7,885.1z"/>
	<path d="M672.8,854.1c-1.5-3.2-3.8-5.7-6.7-7.5c-2.9-1.8-6.3-2.7-10.2-2.7s-7.4,0.9-10.5,2.7c-3.1,1.8-5.6,4.3-7.3,7.6
		c-1.8,3.3-2.7,7.2-2.7,11.5c0,4.4,0.9,8.2,2.7,11.5c1.8,3.3,4.2,5.8,7.3,7.6c3.1,1.8,6.6,2.7,10.5,2.7c5.4,0,9.9-1.6,13.4-4.9
		c3.5-3.2,5.5-7.6,6.1-13.1h-22.1v-5.9h29.9v5.6c-0.4,4.6-1.9,8.8-4.3,12.5c-2.4,3.8-5.7,6.8-9.6,9c-4,2.2-8.4,3.3-13.3,3.3
		c-5.2,0-9.9-1.2-14.1-3.6c-4.2-2.4-7.6-5.8-10.1-10.1c-2.5-4.3-3.7-9.2-3.7-14.6s1.2-10.3,3.7-14.6c2.5-4.3,5.8-7.7,10.1-10.1
		c4.2-2.4,8.9-3.6,14.1-3.6c5.9,0,11.1,1.5,15.7,4.4c4.5,2.9,7.8,7,9.9,12.3H672.8z"/>
	<path d="M725.5,881.2h-24.2l-4.5,12.3h-7.6l20.1-55.2h8.4l20,55.2H730L725.5,881.2z M723.5,875.3l-10-28l-10,28H723.5z"/>
</g>
</svg>
