<?xml version="1.0" encoding="utf-8"?>
<!-- Generator: Adobe Illustrator 26.3.0, SVG Export Plug-In . SVG Version: 6.00 Build 0)  -->
<svg version="1.1" id="Layer_1" xmlns="http://www.w3.org/2000/svg" xmlns:xlink="http://www.w3.org/1999/xlink" x="0px" y="0px"
	 viewBox="0 0 1160.8 210.1" style="enable-background:new 0 0 1160.8 210.1;" xml:space="preserve">
<style type="text/css">
	.st0{enable-background:new    ;}
</style>
<path d="M317,97.8c12.6-9.1,23.2-24.6,19.8-49.7C332.2,15.8,307.9,0,272.9,0h-79.1c-0.2,0-0.4,0-0.6,0h-0.4c-2.7,0.3-5.3,1.3-7.5,3
	c-0.9,0.7-1.7,1.5-2.4,2.4L103.7,139L24.3,5.5c-3.5-4.6-9.5-6.5-15-4.8C3.8,2.5,0,7.6,0,13.5v183.3c0.1,7.3,6,13.2,13.4,13.3
	c7.4,0,13.3-6,13.4-13.3V62.2l66,110c2.6,3.4,6.7,5.4,11,5.3c4.2,0.1,8.2-1.9,10.7-5.3l65.8-110l21.6-35.5h71.1
	c22.7,0,35.3,7.2,37.4,24.6c2.4,21.7-8,35-27.8,37.2l-20.3,0.3c-7.4,0-13.3,6-13.4,13.4c0.3,7.2,6.1,13.4,13.4,13.4h0.3l20.9-0.3
	h0.8c26.2,0,40.6,12.8,38,39c-1.9,19.8-14.7,28.9-36.4,28.9h-78.6v-41.7c0-7.5-6-13.5-13.5-13.5s-13.5,6-13.5,13.5v55.2
	c0,7.5,6,13.5,13.5,13.5l0,0h92.1c35.5,0,60.4-20.3,63.1-53.5C351.2,126.4,334.7,104,317,97.8z"/>
<g class="st0">
	<path d="M446.3,36v62.1h-12.5V57.7l-16.6,40.4h-9.4l-16.7-40.4v40.4h-12.5V36h14.2l19.8,46.2L432.3,36H446.3z"/>
	<path d="M458.4,60c2-3.9,4.7-6.8,8.1-8.9c3.4-2.1,7.2-3.1,11.4-3.1c3.7,0,6.9,0.7,9.7,2.2c2.8,1.5,5,3.4,6.6,5.6v-7h12.5v49.3
		h-12.5v-7.2c-1.6,2.3-3.8,4.2-6.6,5.7c-2.8,1.5-6.1,2.3-9.7,2.3c-4.2,0-7.9-1.1-11.3-3.2c-3.4-2.1-6.1-5.1-8.1-9
		c-2-3.9-3-8.4-3-13.4C455.4,68.3,456.4,63.9,458.4,60z M492.4,65.7c-1.2-2.2-2.8-3.8-4.8-5c-2-1.2-4.2-1.7-6.5-1.7
		s-4.5,0.6-6.4,1.7c-2,1.1-3.5,2.8-4.8,4.9c-1.2,2.2-1.8,4.7-1.8,7.7c0,3,0.6,5.6,1.8,7.8c1.2,2.2,2.8,3.9,4.8,5.1
		c2,1.2,4.1,1.8,6.4,1.8c2.3,0,4.5-0.6,6.5-1.7c2-1.2,3.6-2.8,4.8-5c1.2-2.2,1.8-4.8,1.8-7.8C494.2,70.5,493.6,67.9,492.4,65.7z"/>
	<path d="M537.7,50.3c2.6-1.5,5.5-2.2,8.9-2.2v13.1h-3.3c-3.9,0-6.9,0.9-8.9,2.8c-2,1.8-3,5-3,9.6v24.6H519V48.8h12.5v7.7
		C533,53.9,535.1,51.8,537.7,50.3z"/>
	<path d="M555.8,40.9c-1.5-1.4-2.2-3.1-2.2-5.2s0.7-3.8,2.2-5.2c1.5-1.4,3.3-2.1,5.5-2.1c2.2,0,4,0.7,5.5,2.1
		c1.5,1.4,2.2,3.1,2.2,5.2s-0.7,3.8-2.2,5.2c-1.5,1.4-3.3,2.1-5.5,2.1C559,43,557.2,42.3,555.8,40.9z M567.4,48.8v49.3h-12.5V48.8
		H567.4z"/>
	<path d="M579.4,60c2-3.9,4.7-6.8,8.1-8.9c3.4-2.1,7.2-3.1,11.4-3.1c3.7,0,6.9,0.7,9.7,2.2c2.8,1.5,5,3.4,6.6,5.6v-7h12.5v49.3
		h-12.5v-7.2c-1.6,2.3-3.8,4.2-6.6,5.7c-2.8,1.5-6.1,2.3-9.7,2.3c-4.2,0-7.9-1.1-11.3-3.2c-3.4-2.1-6.1-5.1-8.1-9
		c-2-3.9-3-8.4-3-13.4C576.4,68.3,577.4,63.9,579.4,60z M613.5,65.7c-1.2-2.2-2.8-3.8-4.8-5c-2-1.2-4.2-1.7-6.5-1.7
		c-2.3,0-4.5,0.6-6.4,1.7c-2,1.1-3.5,2.8-4.8,4.9c-1.2,2.2-1.8,4.7-1.8,7.7c0,3,0.6,5.6,1.8,7.8c1.2,2.2,2.8,3.9,4.8,5.1
		c2,1.2,4.1,1.8,6.4,1.8c2.3,0,4.5-0.6,6.5-1.7c2-1.2,3.6-2.8,4.8-5c1.2-2.2,1.8-4.8,1.8-7.8C615.2,70.5,614.7,67.9,613.5,65.7z"/>
	<path d="M681.6,53.7c3.6,3.7,5.4,8.9,5.4,15.5v28.9h-12.5V70.9c0-3.9-1-6.9-2.9-9c-2-2.1-4.6-3.2-8-3.2c-3.4,0-6.2,1.1-8.1,3.2
		c-2,2.1-3,5.1-3,9v27.2H640V48.8h12.5V55c1.7-2.1,3.8-3.8,6.4-5c2.6-1.2,5.4-1.8,8.5-1.8C673.2,48.1,677.9,50,681.6,53.7z"/>
	<path d="M698.6,60c2-3.9,4.7-6.8,8.1-8.9c3.4-2.1,7.2-3.1,11.4-3.1c3.7,0,6.9,0.7,9.7,2.2c2.8,1.5,5,3.4,6.6,5.6v-7H747v49.3h-12.5
		v-7.2c-1.6,2.3-3.8,4.2-6.6,5.7c-2.8,1.5-6.1,2.3-9.7,2.3c-4.2,0-7.9-1.1-11.3-3.2c-3.4-2.1-6.1-5.1-8.1-9c-2-3.9-3-8.4-3-13.4
		C695.6,68.3,696.6,63.9,698.6,60z M732.6,65.7c-1.2-2.2-2.8-3.8-4.8-5c-2-1.2-4.2-1.7-6.5-1.7c-2.3,0-4.5,0.6-6.4,1.7
		c-2,1.1-3.5,2.8-4.8,4.9c-1.2,2.2-1.8,4.7-1.8,7.7c0,3,0.6,5.6,1.8,7.8c1.2,2.2,2.8,3.9,4.8,5.1c2,1.2,4.1,1.8,6.4,1.8
		c2.3,0,4.5-0.6,6.5-1.7c2-1.2,3.6-2.8,4.8-5c1.2-2.2,1.8-4.8,1.8-7.8C734.4,70.5,733.8,67.9,732.6,65.7z"/>
	<path d="M824.2,71.5c2.3,2.8,3.4,6.1,3.4,9.8c0,3.3-0.8,6.2-2.4,8.8c-1.6,2.5-4,4.5-7.1,5.9c-3.1,1.4-6.7,2.1-10.9,2.1h-26.8V36
		H806c4.2,0,7.8,0.7,10.9,2c3.1,1.4,5.4,3.3,6.9,5.7c1.6,2.4,2.4,5.2,2.4,8.3c0,3.6-1,6.6-2.9,9.1c-1.9,2.4-4.5,4.2-7.7,5.2
		C819.1,66.9,822,68.7,824.2,71.5z M792.8,61.6h11.4c3,0,5.3-0.7,6.9-2c1.6-1.3,2.4-3.2,2.4-5.7c0-2.5-0.8-4.4-2.4-5.8
		c-1.6-1.4-3.9-2-6.9-2h-11.4V61.6z M812.4,85.9c1.7-1.4,2.5-3.4,2.5-6.1c0-2.7-0.9-4.8-2.7-6.3s-4.2-2.3-7.2-2.3h-12.3V88h12.5
		C808.4,88,810.7,87.3,812.4,85.9z"/>
	<path d="M846.6,95.8c-3.8-2.1-6.8-5.1-8.9-8.9c-2.2-3.9-3.2-8.3-3.2-13.4c0-5,1.1-9.5,3.3-13.3c2.2-3.9,5.3-6.8,9.1-8.9
		c3.9-2.1,8.2-3.2,12.9-3.2c4.7,0,9,1.1,12.9,3.2c3.9,2.1,6.9,5.1,9.1,8.9c2.2,3.9,3.3,8.3,3.3,13.3c0,5-1.1,9.5-3.4,13.4
		c-2.3,3.9-5.4,6.8-9.3,8.9c-3.9,2.1-8.2,3.2-13,3.2C854.7,98.9,850.4,97.9,846.6,95.8z M865.8,86.4c2-1.1,3.6-2.7,4.8-4.9
		c1.2-2.2,1.8-4.9,1.8-8c0-4.7-1.2-8.3-3.7-10.8c-2.5-2.5-5.5-3.8-9-3.8c-3.6,0-6.5,1.3-8.9,3.8c-2.4,2.5-3.6,6.1-3.6,10.8
		c0,4.7,1.2,8.3,3.5,10.8c2.3,2.5,5.3,3.8,8.9,3.8C861.7,88.1,863.8,87.5,865.8,86.4z"/>
	<path d="M913.1,50.3c2.6-1.5,5.5-2.2,8.9-2.2v13.1h-3.3c-3.9,0-6.9,0.9-8.9,2.8c-2,1.8-3,5-3,9.6v24.6h-12.5V48.8h12.5v7.7
		C908.4,53.9,910.5,51.8,913.1,50.3z"/>
	<path d="M949,50.3c2.6-1.5,5.5-2.2,8.9-2.2v13.1h-3.3c-3.9,0-6.9,0.9-8.9,2.8c-2,1.8-3,5-3,9.6v24.6h-12.5V48.8h12.5v7.7
		C944.4,53.9,946.5,51.8,949,50.3z"/>
	<path d="M966,60c2-3.9,4.7-6.8,8.1-8.9c3.4-2.1,7.2-3.1,11.4-3.1c3.7,0,6.9,0.7,9.7,2.2c2.8,1.5,5,3.4,6.6,5.6v-7h12.5v49.3h-12.5
		v-7.2c-1.6,2.3-3.8,4.2-6.6,5.7c-2.8,1.5-6.1,2.3-9.7,2.3c-4.2,0-7.9-1.1-11.3-3.2c-3.4-2.1-6.1-5.1-8.1-9c-2-3.9-3-8.4-3-13.4
		C963.1,68.3,964,63.9,966,60z M1000.1,65.7c-1.2-2.2-2.8-3.8-4.8-5c-2-1.2-4.2-1.7-6.5-1.7c-2.3,0-4.5,0.6-6.4,1.7
		c-2,1.1-3.5,2.8-4.8,4.9c-1.2,2.2-1.8,4.7-1.8,7.7c0,3,0.6,5.6,1.8,7.8c1.2,2.2,2.8,3.9,4.8,5.1c2,1.2,4.1,1.8,6.4,1.8
		c2.3,0,4.5-0.6,6.5-1.7c2-1.2,3.6-2.8,4.8-5c1.2-2.2,1.8-4.8,1.8-7.8C1001.9,70.5,1001.3,67.9,1000.1,65.7z"/>
	<path d="M1039.1,32.3v65.9h-12.5V32.3H1039.1z"/>
	<path d="M1089.1,50.6c2.9,1.6,5.2,4,6.8,7.2c1.6,3.2,2.4,7,2.4,11.4v28.9h-12.5V70.9c0-3.9-1-6.9-2.9-9c-2-2.1-4.6-3.2-8-3.2
		c-3.4,0-6.2,1.1-8.1,3.2c-2,2.1-3,5.1-3,9v27.2h-12.5V32.3h12.5V55c1.6-2.1,3.7-3.8,6.4-5c2.7-1.2,5.6-1.8,8.9-1.8
		C1082.8,48.1,1086.2,48.9,1089.1,50.6z"/>
	<path d="M1119.2,95.8c-3.8-2.1-6.8-5.1-8.9-8.9c-2.2-3.9-3.2-8.3-3.2-13.4c0-5,1.1-9.5,3.3-13.3c2.2-3.9,5.3-6.8,9.1-8.9
		c3.9-2.1,8.2-3.2,12.9-3.2c4.7,0,9,1.1,12.9,3.2c3.9,2.1,6.9,5.1,9.1,8.9c2.2,3.9,3.3,8.3,3.3,13.3c0,5-1.1,9.5-3.4,13.4
		c-2.3,3.9-5.4,6.8-9.3,8.9c-3.9,2.1-8.2,3.2-13,3.2C1127.3,98.9,1123,97.9,1119.2,95.8z M1138.4,86.4c2-1.1,3.6-2.7,4.8-4.9
		c1.2-2.2,1.8-4.9,1.8-8c0-4.7-1.2-8.3-3.7-10.8c-2.5-2.5-5.5-3.8-9-3.8c-3.6,0-6.5,1.3-8.9,3.8c-2.4,2.5-3.6,6.1-3.6,10.8
		c0,4.7,1.2,8.3,3.5,10.8c2.3,2.5,5.3,3.8,8.9,3.8C1134.3,88.1,1136.4,87.5,1138.4,86.4z"/>
</g>
<g class="st0">
	<path d="M626.7,154.7c-2.4,2.3-6,3.5-10.9,3.5h-8v17.5h-5.5v-41.8h13.5c4.7,0,8.3,1.1,10.8,3.4c2.5,2.3,3.7,5.2,3.7,8.8
		C630.3,149.5,629.1,152.4,626.7,154.7z M622.5,151.7c1.4-1.3,2.2-3.2,2.2-5.6c0-5.2-3-7.7-8.9-7.7h-8v15.4h8
		C618.8,153.6,621.1,153,622.5,151.7z"/>
	<path d="M642.9,174.5c-2.2-1-3.9-2.3-5.1-4.1c-1.2-1.7-1.9-3.8-1.9-6h5.8c0.2,2,1,3.6,2.4,5c1.4,1.3,3.5,2,6.2,2
		c2.6,0,4.6-0.6,6.1-2c1.5-1.3,2.2-3,2.2-5c0-1.6-0.4-2.9-1.3-3.9c-0.9-1-2-1.8-3.3-2.3c-1.3-0.5-3.1-1.1-5.3-1.7
		c-2.8-0.7-5-1.4-6.6-2.2c-1.7-0.7-3.1-1.8-4.3-3.4c-1.2-1.5-1.8-3.6-1.8-6.2c0-2.3,0.6-4.3,1.7-6.1c1.2-1.8,2.8-3.1,4.9-4.1
		c2.1-1,4.5-1.4,7.2-1.4c3.9,0,7.1,1,9.6,2.9c2.5,2,3.9,4.6,4.2,7.8h-6c-0.2-1.6-1-3-2.5-4.2c-1.5-1.2-3.4-1.8-5.9-1.8
		c-2.3,0-4.1,0.6-5.6,1.8c-1.4,1.2-2.2,2.8-2.2,5c0,1.5,0.4,2.8,1.3,3.7s1.9,1.7,3.2,2.2s3,1.1,5.3,1.7c2.8,0.8,5,1.5,6.7,2.2
		s3.1,1.9,4.3,3.4c1.2,1.5,1.8,3.6,1.8,6.3c0,2-0.5,4-1.6,5.8c-1.1,1.8-2.7,3.3-4.8,4.4c-2.1,1.1-4.6,1.7-7.5,1.7
		C647.5,176,645.1,175.5,642.9,174.5z"/>
	<path d="M677.7,133.8v41.8h-5.5v-41.8H677.7z"/>
	<path d="M687.7,143.6c1.8-3.3,4.3-5.8,7.5-7.6c3.2-1.8,6.7-2.8,10.6-2.8c4.6,0,8.5,1.1,11.9,3.3c3.4,2.2,5.9,5.3,7.4,9.4h-6.5
		c-1.2-2.5-2.8-4.5-5-5.8c-2.2-1.4-4.8-2-7.8-2c-2.9,0-5.5,0.7-7.9,2c-2.3,1.4-4.1,3.3-5.5,5.8c-1.3,2.5-2,5.4-2,8.8
		c0,3.3,0.7,6.2,2,8.7c1.3,2.5,3.1,4.4,5.5,5.8c2.3,1.4,4.9,2,7.9,2c3,0,5.6-0.7,7.8-2c2.2-1.3,3.8-3.3,5-5.8h6.5
		c-1.6,4-4,7.1-7.4,9.3c-3.4,2.2-7.4,3.3-11.9,3.3c-3.9,0-7.4-0.9-10.6-2.7c-3.2-1.8-5.7-4.3-7.5-7.6c-1.8-3.2-2.8-6.9-2.8-11
		C685,150.6,685.9,146.9,687.7,143.6z"/>
	<path d="M741.7,173.3c-3.2-1.8-5.7-4.4-7.6-7.6c-1.9-3.3-2.8-6.9-2.8-11c0-4.1,0.9-7.7,2.8-11c1.9-3.3,4.4-5.8,7.6-7.6
		c3.2-1.8,6.7-2.7,10.6-2.7c3.9,0,7.5,0.9,10.7,2.7c3.2,1.8,5.7,4.4,7.6,7.6c1.8,3.2,2.8,6.9,2.8,11c0,4.1-0.9,7.8-2.8,11
		c-1.8,3.2-4.4,5.8-7.6,7.6c-3.2,1.8-6.8,2.7-10.7,2.7C748.4,176,744.9,175.1,741.7,173.3z M760.2,169.2c2.3-1.4,4.2-3.3,5.5-5.8
		c1.3-2.5,2-5.4,2-8.8c0-3.4-0.7-6.3-2-8.8c-1.3-2.5-3.2-4.4-5.5-5.8c-2.3-1.4-5-2-7.9-2c-3,0-5.6,0.7-7.9,2
		c-2.3,1.4-4.2,3.3-5.5,5.8c-1.3,2.5-2,5.4-2,8.8c0,3.3,0.7,6.2,2,8.8c1.3,2.5,3.2,4.5,5.5,5.8c2.3,1.4,5,2,7.9,2
		C755.2,171.3,757.8,170.6,760.2,169.2z M758.3,124.7l-12.8,6.8v-4.1l12.8-7.5V124.7z"/>
	<path d="M786,171.2h14.6v4.4h-20.1v-41.8h5.5V171.2z"/>
	<path d="M814.8,173.3c-3.2-1.8-5.7-4.4-7.6-7.6c-1.9-3.3-2.8-6.9-2.8-11c0-4.1,0.9-7.7,2.8-11c1.9-3.3,4.4-5.8,7.6-7.6
		c3.2-1.8,6.7-2.7,10.6-2.7c3.9,0,7.5,0.9,10.7,2.7c3.2,1.8,5.7,4.4,7.6,7.6c1.8,3.2,2.8,6.9,2.8,11c0,4.1-0.9,7.8-2.8,11
		c-1.8,3.2-4.4,5.8-7.6,7.6c-3.2,1.8-6.8,2.7-10.7,2.7C821.5,176,818,175.1,814.8,173.3z M833.3,169.2c2.3-1.4,4.2-3.3,5.5-5.8
		c1.3-2.5,2-5.4,2-8.8c0-3.4-0.7-6.3-2-8.8c-1.3-2.5-3.2-4.4-5.5-5.8c-2.3-1.4-5-2-7.9-2c-3,0-5.6,0.7-7.9,2
		c-2.3,1.4-4.2,3.3-5.5,5.8c-1.3,2.5-2,5.4-2,8.8c0,3.3,0.7,6.2,2,8.8c1.3,2.5,3.2,4.5,5.5,5.8c2.3,1.4,5,2,7.9,2
		C828.3,171.3,830.9,170.6,833.3,169.2z"/>
	<path d="M885.3,145.9c-1.2-2.4-2.8-4.3-5-5.7c-2.2-1.3-4.8-2-7.7-2c-2.9,0-5.5,0.7-7.9,2c-2.3,1.3-4.2,3.3-5.5,5.8
		c-1.3,2.5-2,5.4-2,8.7c0,3.3,0.7,6.2,2,8.6c1.3,2.5,3.2,4.4,5.5,5.7c2.3,1.3,5,2,7.9,2c4.1,0,7.4-1.2,10.1-3.7
		c2.6-2.4,4.2-5.7,4.6-9.9h-16.7V153h22.5v4.2c-0.3,3.4-1.4,6.6-3.2,9.5c-1.8,2.9-4.3,5.1-7.3,6.8c-3,1.7-6.3,2.5-10,2.5
		c-3.9,0-7.4-0.9-10.6-2.7c-3.2-1.8-5.7-4.3-7.6-7.6s-2.8-6.9-2.8-11c0-4.1,0.9-7.7,2.8-11c1.9-3.3,4.4-5.8,7.6-7.6
		c3.2-1.8,6.7-2.7,10.6-2.7c4.4,0,8.4,1.1,11.8,3.3c3.4,2.2,5.9,5.3,7.5,9.3H885.3z"/>
	<path d="M925,166.3h-18.2l-3.4,9.3h-5.8l15.1-41.6h6.3l15.1,41.6h-5.8L925,166.3z M923.4,161.9l-7.6-21.1l-7.6,21.1H923.4z"/>
</g>
</svg>
